<svg xmlns="http://www.w3.org/2000/svg" width="1900" height="1900" viewBox="0 0 1900 1900">
  <defs>
    <style>
      .cls-1 { fill: #277bb2; }
      .cls-2 { fill: #333; fill-rule: evenodd; }
    </style>
  </defs>
  <circle class="cls-1" cx="950" cy="950" r="950"/>
  <g>
    <path id="Rounded_Rectangle_1_copy" class="cls-2" d="M1846.76,1419H1339.24a64.238,64.238,0,0,1-64.24-64.24V847.242A64.24,64.24,0,0,1,1339.24,783h507.52A64.24,64.24,0,0,1,1911,847.242S1847.4,970.521,1847.4,1101c0,123.06,63.6,253.76,63.6,253.76A64.238,64.238,0,0,1,1846.76,1419Z" transform="translate(-297 -26)"/>
    <path id="Rounded_Rectangle_1" class="cls-2" d="M648.242,533H1155.76A64.24,64.24,0,0,1,1220,597.242V1104.76a64.238,64.238,0,0,1-64.24,64.24H648.242A64.24,64.24,0,0,1,584,1104.76S647.6,981.479,647.6,851c0-123.061-63.6-253.758-63.6-253.758A64.242,64.242,0,0,1,648.242,533Z" transform="translate(-297 -26)"/>
  </g>
</svg>
